<svg style="display:none"><symbol viewBox="0 0 479.754 479.754" id="page-header__login"><path d="M468.146 25.092H129.638c-6.411 0-11.608 5.198-11.608 11.608 0 6.413 5.197 11.61 11.608 11.61h326.899v383.133H129.638c-6.411 0-11.608 5.196-11.608 11.611 0 6.408 5.197 11.606 11.608 11.606h338.508c6.41 0 11.607-5.198 11.607-11.606V36.701c.001-6.41-5.196-11.609-11.607-11.609z"/><path d="M176.793 310.41c-4.535 4.536-4.535 11.883 0 16.419a11.579 11.579 0 0 0 8.211 3.4 11.58 11.58 0 0 0 8.206-3.4l71.589-71.588c4.536-4.535 4.536-11.885 0-16.417l-71.589-71.598c-4.534-4.538-11.882-4.538-16.417 0-4.535 4.528-4.535 11.881 0 16.414l51.771 51.781H11.61C5.199 235.42 0 240.62 0 247.03c0 6.412 5.199 11.611 11.61 11.611h216.954l-51.771 51.769z"/></symbol><symbol viewBox="0 0 463.009 463.009" id="page-header__phone"><path d="M462.692 381.085c-1.472-11.126-7.895-20.719-17.62-26.318L330.846 289c-13.99-8.055-31.738-5.71-43.157 5.708l-22.499 22.499c-5.987 5.988-15.459 6.518-22.028 1.231-17.737-14.272-35.201-29.979-51.906-46.685-16.705-16.705-32.412-34.168-46.685-51.906-5.287-6.57-4.758-16.041 1.231-22.029l22.498-22.499c11.418-11.417 13.766-29.163 5.709-43.156L108.242 17.937C102.642 8.211 93.05 1.789 81.924.317c-11.127-1.475-22.06 2.236-29.996 10.172L18.027 44.391c-23.661 23.662-24.041 66.944-1.07 121.875 22.088 52.818 63.308 110.962 116.065 163.721 52.759 52.758 110.903 93.978 163.722 116.066 27.039 11.307 51.253 16.957 71.697 16.956 21.088 0 38.163-6.013 50.178-18.027l33.901-33.902c7.935-7.936 11.643-18.869 10.172-29.995zm-139.33-79.086l114.226 65.767c5.649 3.252 9.379 8.824 10.233 15.286.718 5.423-.691 10.763-3.885 15.066L292.131 311.48l6.165-6.165c6.631-6.631 16.941-7.994 25.066-3.316zM79.956 15.188c6.463.855 12.034 4.585 15.286 10.234l65.767 114.226c4.68 8.127 3.316 18.435-3.315 25.065l-5.663 5.663L64.917 19.073c3.561-2.637 7.82-4.069 12.26-4.069.921 0 1.85.061 2.779.184zm328.055 419.187c-18.798 18.798-57.244 18.01-105.48-2.162-51.06-21.352-107.491-61.424-158.901-112.833-51.41-51.41-91.482-107.842-112.834-158.901-20.173-48.237-20.96-86.683-2.162-105.482l25.167-25.168 87.245 151.532-5.851 5.851c-11.415 11.416-12.409 29.488-2.311 42.04 14.609 18.156 30.68 36.024 47.764 53.108 17.086 17.085 34.954 33.156 53.109 47.765 12.55 10.098 30.622 9.105 42.04-2.312l5.338-5.338 152.016 86.759-25.14 25.141z"/></symbol><symbol viewBox="0 0 90 90" id="social__link--fb"><path d="M90 15.001C90 7.119 82.884 0 75 0H15C7.116 0 0 7.119 0 15.001v59.998C0 82.881 7.116 90 15.001 90H45V56H34V41h11v-5.844C45 25.077 52.568 16 61.875 16H74v15H61.875C60.548 31 59 32.611 59 35.024V41h15v15H59v34h16c7.884 0 15-7.119 15-15.001V15.001z"/></symbol><symbol viewBox="0 0 97.395 97.395" id="social__link--insta"><path d="M12.501 0h72.393c6.875 0 12.5 5.09 12.5 12.5v72.395c0 7.41-5.625 12.5-12.5 12.5H12.501C5.624 97.395 0 92.305 0 84.895V12.5C0 5.09 5.624 0 12.501 0zm58.447 10.821a4.395 4.395 0 0 0-4.383 4.385v10.495a4.396 4.396 0 0 0 4.383 4.385h11.008a4.398 4.398 0 0 0 4.385-4.385V15.206a4.397 4.397 0 0 0-4.385-4.385H70.948zm15.439 30.367h-8.572a28.486 28.486 0 0 1 1.25 8.355c0 16.2-13.556 29.332-30.275 29.332-16.718 0-30.272-13.132-30.272-29.332 0-2.904.438-5.708 1.25-8.355h-8.945v41.141a3.884 3.884 0 0 0 3.872 3.872h67.822a3.883 3.883 0 0 0 3.872-3.872V41.188h-.002zM48.789 29.533c-10.802 0-19.56 8.485-19.56 18.953s8.758 18.953 19.56 18.953c10.803 0 19.562-8.485 19.562-18.953s-8.758-18.953-19.562-18.953z"/></symbol><symbol viewBox="0 0 96 96" id="social__link--vk"><path d="M53.174 52.908c-1.539-.896-3.678-.896-5.416-.896h-5.707v11.76h5.238c1.939 0 4.412.139 6.084-1.035 1.535-1.033 2.404-3.061 2.404-4.992 0-1.794-1.068-3.94-2.603-4.837zm-2.153-10.043c1.27-.967 1.936-2.691 1.936-4.279 0-1.725-.801-3.381-2.27-4.277-1.537-.896-4.346-.689-6.15-.689h-2.486v10.35h3.289c1.871-.001 4.078.137 5.681-1.105zM79.125 0H16.873C7.555 0 0 7.555 0 16.875v62.25C0 88.443 7.555 96 16.873 96h62.252C88.443 96 96 88.443 96 79.125v-62.25C96 7.555 88.443 0 79.125 0zM50.604 72.535H30.992V25.201H52.42c6.207 0 11.934 3.951 11.934 10.92 0 5.381-3.004 9.066-6.836 10.211v.139c5.682 1.174 9.74 4.26 9.74 11.705 0 6.89-4.692 14.359-16.654 14.359z"/></symbol></svg>