<svg xmlns="http://www.w3.org/2000/svg" width="479.754" height="479.754" viewBox="0 0 479.754 479.754"><path d="M468.146 25.092H129.638c-6.411 0-11.608 5.198-11.608 11.608 0 6.413 5.197 11.61 11.608 11.61h326.899v383.133H129.638c-6.411 0-11.608 5.196-11.608 11.611 0 6.408 5.197 11.606 11.608 11.606h338.508c6.41 0 11.607-5.198 11.607-11.606V36.701c.001-6.41-5.196-11.609-11.607-11.609z"/><path d="M176.793 310.41c-4.535 4.536-4.535 11.883 0 16.419a11.579 11.579 0 0 0 8.211 3.4 11.58 11.58 0 0 0 8.206-3.4l71.589-71.588c4.536-4.535 4.536-11.885 0-16.417l-71.589-71.598c-4.534-4.538-11.882-4.538-16.417 0-4.535 4.528-4.535 11.881 0 16.414l51.771 51.781H11.61C5.199 235.42 0 240.62 0 247.03c0 6.412 5.199 11.611 11.61 11.611h216.954l-51.771 51.769z"/></svg>